<svg version="1.1" id="Layer_1" xmlns="http://www.w3.org/2000/svg" xmlns:xlink="http://www.w3.org/1999/xlink" x="0px" y="0px"
	 width="100%" viewBox="0 0 1080 1080" enable-background="new 0 0 1080 1080" xml:space="preserve">
<path fill="none" opacity="0" stroke="none"
	d="
M492.000000,1081.000000
	C328.404175,1081.000000 164.808350,1081.000000 1.000000,1081.000000
	C1.000000,917.308472 1.000000,753.616882 1.399813,589.526978
	C2.164985,589.637878 2.788799,590.114319 2.857931,590.660950
	C4.600107,604.437439 6.171148,618.236450 8.029083,631.996826
	C8.869160,638.218750 10.259320,644.366394 11.399923,650.547729
	C9.490923,632.145935 6.031709,613.978455 4.352442,595.647888
	C2.644399,577.003174 2.038804,558.193787 2.151739,539.463745
	C2.263523,520.924683 3.250913,502.335358 5.004964,483.877411
	C6.748801,465.526978 9.924492,447.312561 12.602419,428.105194
	C11.995978,429.748779 11.571506,430.488617 11.455378,431.274048
	C8.602923,450.566589 5.810469,469.868042 2.898873,489.151550
	C2.695388,490.499207 1.652525,491.720154 0.999995,493.000000
	C1.000000,329.070953 1.000000,165.141937 1.000000,1.000000
	C164.358170,1.000000 327.716431,1.000000 491.479370,1.400550
	C491.377228,2.164563 490.903503,2.783488 490.358673,2.854099
	C476.901428,4.598236 463.417328,6.147229 449.980988,8.036383
	C442.862396,9.037260 435.824341,10.611267 428.749939,11.926539
	C428.817352,12.366214 428.884735,12.805889 428.952148,13.245564
	C467.409271,5.441684 506.177734,1.582859 545.435669,1.824246
	C584.832397,2.066486 623.617798,6.866172 662.161804,14.766563
	C661.022461,13.903606 659.822388,13.296715 658.558228,13.098435
	C636.818054,9.688540 615.066528,6.351073 593.333191,2.898455
	C592.151428,2.710717 591.107910,1.652839 590.000000,1.000002
	C753.595825,1.000000 917.191650,1.000000 1081.000000,1.000000
	C1081.000000,164.691513 1081.000000,328.383118 1080.599854,492.473206
	C1079.814941,492.198181 1079.169556,491.555908 1079.084473,490.846375
	C1077.686401,479.191711 1076.579468,467.497528 1074.945312,455.877197
	C1073.665405,446.776276 1071.751953,437.764435 1070.120117,428.713013
	C1069.667358,428.761719 1069.214478,428.810425 1068.761719,428.859131
	C1083.949585,502.644165 1084.082642,576.479126 1069.209473,651.147949
	C1070.350464,650.162231 1070.756104,649.987244 1070.789307,649.758362
	C1073.557739,630.620117 1076.271240,611.473877 1079.100708,592.344849
	C1079.275757,591.162109 1080.346191,590.111877 1081.000000,589.000000
	C1081.000000,752.929016 1081.000000,916.857971 1081.000000,1081.000000
	C917.641846,1081.000000 754.283569,1081.000000 590.521973,1080.600098
	C594.753967,1079.474487 599.383118,1078.705322 604.026611,1078.035889
	C607.957153,1077.469238 611.910645,1077.062744 615.842285,1076.502930
	C619.514893,1075.980103 623.171997,1075.348511 626.835938,1074.764893
	C569.022522,1082.527588 511.323975,1082.474976 453.078796,1073.284912
	C453.814972,1074.272339 453.973480,1074.708496 454.183929,1074.735229
	C465.675995,1076.192383 477.178253,1077.571411 488.659454,1079.108154
	C489.836304,1079.265625 490.889435,1080.347290 492.000000,1081.000000
z"/>
<path fill="#FC4434" opacity="1.000000" stroke="none"
	d="
M715.653992,529.345581
	C733.159302,546.483398 750.416321,563.369568 767.356445,579.945679
	C776.525635,570.947693 786.223450,561.430908 796.437683,551.407349
	C783.995789,539.662476 771.457703,527.826843 759.017639,516.083740
	C769.430725,504.170441 786.528625,502.734772 797.615845,512.274292
	C805.292664,518.879517 812.487305,526.182007 819.088196,533.867859
	C828.366821,544.671753 827.420166,561.140808 817.300720,571.736755
	C807.405029,582.098511 797.298157,592.270325 787.006165,602.238647
	C775.368958,613.509888 758.082092,612.891907 746.271362,601.032593
	C725.811096,580.488037 705.398438,559.896057 685.002136,539.288086
	C683.845215,538.119202 683.015686,536.626343 682.441223,535.841187
	C671.924133,546.105896 662.085571,555.708313 651.808167,565.739136
	C663.950134,577.498291 676.136353,589.300293 688.233643,601.016113
	C680.563660,611.223938 663.694092,614.134460 653.118347,605.877686
	C643.639587,598.477356 634.940552,589.626099 627.547974,580.130127
	C619.769775,570.138794 621.598145,555.348694 630.358093,546.029297
	C640.512024,535.226929 650.899292,524.617493 661.629578,514.390503
	C673.053406,503.502533 689.938477,503.953156 701.293274,514.926575
	C706.085449,519.557800 710.706665,524.366089 715.653992,529.345581
z"/>
<path fill="#FDFDFD" opacity="1.000000" stroke="none"
	d="
M937.002625,576.000000
	C937.002625,587.313293 937.002625,598.126648 937.002625,609.171631
	C926.657715,609.171631 916.555908,609.171631 906.045288,609.171631
	C906.045288,606.166077 906.045288,603.269226 906.045288,599.518433
	C896.656250,609.294312 885.890503,613.331848 873.259583,612.321899
	C856.927795,611.015930 845.411011,602.587646 839.239563,587.716736
	C831.445923,568.936951 831.362061,549.586975 839.272217,530.898621
	C850.793335,503.679108 884.617920,497.609192 905.855103,519.165466
	C905.855103,502.425812 905.855103,486.289612 905.855103,469.968140
	C916.410461,469.968140 926.354736,469.968140 937.002625,469.968140
	C937.002625,505.074829 937.002625,540.287415 937.002625,576.000000
M894.242065,531.970215
	C882.435181,526.757324 871.782349,530.843567 867.553894,542.694763
	C863.631104,553.689575 863.707092,564.957886 867.503174,575.986267
	C870.519775,584.750122 876.953796,589.107788 885.537292,588.999573
	C893.700256,588.896606 900.054993,584.320068 902.912720,575.732605
	C906.419861,565.193542 906.740356,554.336914 902.996643,543.893005
	C901.464844,539.619751 897.682251,536.153320 894.242065,531.970215
z"/>
<path fill="#FBFBFB" opacity="1.000000" stroke="none"
	d="
M458.322754,577.663086
	C451.578369,601.018799 431.357727,610.423767 409.155365,607.507080
	C385.066742,604.342529 370.162659,587.543579 369.246460,562.736816
	C368.961945,555.032715 369.593323,546.964294 371.630463,539.565063
	C378.580872,514.320068 400.315460,505.576508 422.210907,508.493622
	C442.971405,511.259583 455.653229,524.813110 458.920746,546.633484
	C459.702728,551.855652 459.950165,557.157898 460.484924,562.866028
	C436.176422,562.866028 412.421417,562.866028 388.698822,562.866028
	C387.740723,575.712585 395.469055,587.587769 406.923187,590.898560
	C419.055939,594.405457 433.470306,590.749756 438.817932,578.420349
	C439.173004,577.601624 440.003784,576.348206 440.580902,576.365723
	C446.529938,576.546204 452.472260,576.947205 458.322754,577.663086
M421.257416,523.954224
	C402.635101,521.064087 388.448181,531.475342 388.629669,548.166504
	C405.996521,548.166504 423.365753,548.166504 440.731079,548.166504
	C440.862244,536.065430 434.565002,528.036377 421.257416,523.954224
z"/>
<path fill="#FCFCFC" opacity="1.000000" stroke="none"
	d="
M239.582230,538.790283
	C241.698853,521.508667 251.470062,511.210999 268.458466,509.134155
	C275.638184,508.256409 283.103912,508.130432 290.267578,509.031189
	C306.540802,511.077423 315.596893,521.560242 315.896362,538.141235
	C316.184937,554.119263 315.962524,570.106201 316.018280,586.088928
	C316.044434,593.586731 317.309570,594.985046 324.655090,596.095642
	C324.767853,596.392578 324.965668,596.688782 324.972870,596.989563
	C325.187866,605.997070 324.523560,606.587097 315.477783,607.013733
	C306.211792,607.450806 299.046326,604.848450 296.888153,594.397461
	C284.624908,607.557617 270.049133,610.617737 253.727249,606.119385
	C242.876968,603.129028 236.484100,595.596191 235.219513,584.426392
	C233.893356,572.712708 237.390015,562.331116 248.601868,557.331909
	C258.035400,553.125671 268.421692,551.053833 278.390717,548.052063
	C282.506744,546.812744 286.728821,545.858398 290.730927,544.325989
	C294.870209,542.741089 296.901825,539.305481 296.740173,534.892395
	C296.568237,530.197693 294.509491,526.497131 289.829987,524.940063
	C281.796265,522.266968 273.741882,522.493652 265.992645,525.895691
	C260.058960,528.500610 258.951233,534.271790 257.877289,540.796631
	C251.687134,540.252625 245.617722,539.719238 239.582230,538.790283
M275.411835,561.904724
	C270.218292,563.969421 264.528931,565.274780 259.942749,568.269531
	C252.306030,573.256226 252.711761,585.869202 260.029297,590.403931
	C271.449982,597.481445 292.330139,589.930542 295.511719,576.944397
	C297.151978,570.249268 296.737091,563.050659 297.261292,555.937683
	C289.554230,558.055542 282.883667,559.888550 275.411835,561.904724
z"/>
<path fill="#FCFCFC" opacity="1.000000" stroke="none"
	d="
M582.589722,586.999512
	C582.589722,547.723572 582.589722,508.947632 582.589722,469.997253
	C593.140625,469.997253 603.234070,469.997253 613.521973,469.997253
	C613.521973,516.342651 613.521973,562.457336 613.521973,608.991333
	C603.482727,608.991333 593.421143,608.991333 582.589661,608.991333
	C582.589661,602.004578 582.589661,594.752014 582.589722,586.999512
z"/>
<path fill="#FCFCFC" opacity="1.000000" stroke="none"
	d="
M470.075012,538.676270
	C469.908752,525.338684 475.332611,516.666992 487.285400,511.798126
	C500.844696,506.274872 514.654968,506.374908 528.043884,512.184448
	C538.997253,516.937195 544.660828,525.899719 545.979248,538.011475
	C539.594849,538.011475 533.523010,538.011475 527.487854,538.011475
	C523.069275,524.407959 507.343903,518.660339 494.798218,525.959290
	C491.359924,527.959656 489.438080,530.829956 489.595581,534.923828
	C489.746704,538.851257 491.706940,541.825745 495.299042,542.928040
	C502.738403,545.210815 510.359192,546.894714 517.850708,549.017700
	C523.265625,550.552124 528.765320,551.991760 533.921509,554.190674
	C543.865845,558.431580 549.122864,566.164185 549.432434,577.117371
	C549.741211,588.041870 545.484131,596.518799 535.966980,602.062927
	C525.896057,607.929504 514.823486,608.841248 503.590088,607.579651
	C498.032898,606.955505 492.354004,605.774963 487.177979,603.718872
	C474.084473,598.517700 468.017975,588.140137 467.103333,574.081177
	C473.291870,574.081177 479.235809,574.081177 485.562775,574.081177
	C486.017242,575.925598 485.999939,578.318115 487.121643,579.906006
	C489.623108,583.447021 492.070770,587.799866 495.659302,589.640747
	C503.573364,593.700684 512.338501,593.890137 520.887390,591.020264
	C526.728333,589.059387 529.963379,584.830994 529.990723,579.828979
	C530.020142,574.447571 527.342285,570.243774 521.324402,568.368408
	C513.257324,565.854431 504.939575,564.153625 496.760590,561.986084
	C493.075684,561.009460 489.371399,559.984985 485.841003,558.570312
	C477.034821,555.041382 471.216095,548.943848 470.075012,538.676270
z"/>
<path fill="#FCFCFC" opacity="1.000000" stroke="none"
	d="
M147.467682,541.237671
	C145.937088,526.787415 151.627396,516.734619 164.624878,511.616699
	C177.853149,506.407898 191.321259,506.452423 204.483185,511.954956
	C215.781876,516.678467 221.449661,525.700134 223.077515,537.962585
	C216.654953,537.962585 210.591965,537.962585 204.526886,537.966919
	C199.846939,524.429138 185.309143,518.892883 172.339005,525.689392
	C168.631393,527.632202 166.470016,530.505188 166.593399,534.819702
	C166.711868,538.962219 168.842667,541.938416 172.663239,543.084839
	C179.960083,545.274292 187.417007,546.924438 194.748413,549.006470
	C200.321213,550.589050 205.999069,552.043945 211.281906,554.352600
	C220.990524,558.595459 226.091507,566.278381 226.432114,577.017212
	C226.772018,587.734680 222.716797,596.199707 213.484833,601.769775
	C203.193893,607.978821 191.779266,608.877319 180.189621,607.539734
	C174.958984,606.936035 169.645706,605.786987 164.733780,603.925354
	C151.301849,598.834595 145.095322,588.390869 144.081589,574.108521
	C150.360611,574.108521 156.450455,574.108521 162.525940,574.108521
	C166.368256,590.822815 186.099518,598.778442 200.968307,589.628479
	C204.716187,587.322083 207.151352,584.087158 206.981323,579.419495
	C206.799210,574.420349 204.390442,570.579895 199.748337,569.055969
	C192.516953,566.681824 185.025467,565.113098 177.718964,562.950500
	C171.532852,561.119507 165.260101,559.368469 159.377594,556.781799
	C152.968826,553.963745 148.940704,548.703430 147.467682,541.237671
z"/>
<path fill="#F9F9F9" opacity="1.000000" stroke="none"
	d="
M336.462463,601.658508
	C336.462128,558.585205 336.462128,515.981812 336.462128,473.199341
	C343.078918,473.199341 349.200165,473.199341 355.667450,473.199341
	C355.667450,516.868774 355.667450,560.587646 355.667450,605.000854
	C350.030487,605.000854 344.111298,605.084717 338.202484,604.875122
	C337.590912,604.853455 337.041229,603.085876 336.462463,601.658508
z"/>
<path fill="#020202" opacity="1.000000" stroke="none"
	d="
M894.582764,532.145020
	C897.682251,536.153320 901.464844,539.619751 902.996643,543.893005
	C906.740356,554.336914 906.419861,565.193542 902.912720,575.732605
	C900.054993,584.320068 893.700256,588.896606 885.537292,588.999573
	C876.953796,589.107788 870.519775,584.750122 867.503174,575.986267
	C863.707092,564.957886 863.631104,553.689575 867.553894,542.694763
	C871.782349,530.843567 882.435181,526.757324 894.582764,532.145020
z"/>
<path fill="#030303" opacity="1.000000" stroke="none"
	d="
M421.665405,524.007324
	C434.565002,528.036377 440.862244,536.065430 440.731079,548.166504
	C423.365753,548.166504 405.996521,548.166504 388.629669,548.166504
	C388.448181,531.475342 402.635101,521.064087 421.665405,524.007324
z"/>
<path fill="#040404" opacity="1.000000" stroke="none"
	d="
M275.812469,561.813110
	C282.883667,559.888550 289.554230,558.055542 297.261292,555.937683
	C296.737091,563.050659 297.151978,570.249268 295.511719,576.944397
	C292.330139,589.930542 271.449982,597.481445 260.029297,590.403931
	C252.711761,585.869202 252.306030,573.256226 259.942749,568.269531
	C264.528931,565.274780 270.218292,563.969421 275.812469,561.813110
z"/>
</svg>
